# xmcd
#
# Track frame offsets:
#       150
#       36366
#       72774
#       103855
#       140122
#       171943
#       200761
#       228969
#       266005
#       295107
#
# Disc length: 4438 seconds
#
# Revision: 8
# Processed by: cddbd v1.5.1PL0 Copyright (c) Steve Scherf et al.
# Submitted via: Bouchi 2005-08
#
DISCID=9c11540a
DTITLE=Jazzanova - The Remixes 1997-2000 [CD2]
DYEAR=2000
DGENRE=Jazz
TTITLE0=Ski - Fifths (Jazzanova 6 Sickth Mix)
TTITLE1=Ursula Rucker - Circe (Jazzanova Mix)
TTITLE2=Koop - Absolute Space (Jazzanova Mix)
TTITLE3=Liquid Lounge - Complete Life (Jazzanova Mix)
TTITLE4=Ian Pooley - What's Your Number (Jazzanova Renumber)
TTITLE5=Balanco - Metti Una Sera A Cena (Jazzanova Mix)
TTITLE6=Tate's Place - Burnin' (Jazzanova Mix)
TTITLE7=Visit Venus - Planet Of Breaks (Jazzanova Mix)
TTITLE8=Soul Quality Quartet - Toda Tersafeira (Jazzanova Rework)
TTITLE9=MJ Cole feat. Nova Caspar and Jay Dee - Sincere (Jazzanova Sincerely Yours Remix)
EXTD=YEAR: 2000
EXTT0=
EXTT1=
EXTT2=
EXTT3=
EXTT4=
EXTT5=
EXTT6=
EXTT7=
EXTT8=
EXTT9=
PLAYORDER=
